<?xml version="1.0" encoding="UTF-8" standalone="no"?>
<!-- Created with Inkscape (http://www.inkscape.org/) -->

<svg
   width="53.308475"
   height="53.30854"
   viewBox="0 0 14.104534 14.104551"
   version="1.1"
   id="svg1"
   xmlns:inkscape="http://www.inkscape.org/namespaces/inkscape"
   xmlns:sodipodi="http://sodipodi.sourceforge.net/DTD/sodipodi-0.dtd"
   xmlns="http://www.w3.org/2000/svg"
   xmlns:svg="http://www.w3.org/2000/svg">
  <sodipodi:namedview
     id="namedview1"
     pagecolor="#ffffff"
     bordercolor="#000000"
     borderopacity="0.25"
     inkscape:showpageshadow="2"
     inkscape:pageopacity="0.0"
     inkscape:pagecheckerboard="0"
     inkscape:deskcolor="#d1d1d1"
     inkscape:document-units="mm"
     showguides="true">
    <sodipodi:guide
       position="6.9210144,19.218961"
       orientation="1,0"
       id="guide1"
       inkscape:locked="false" />
    <sodipodi:guide
       position="-9.1590751,9.8080329"
       orientation="0,-1"
       id="guide2"
       inkscape:locked="false" />
  </sodipodi:namedview>
  <defs
     id="defs1" />
  <g
     inkscape:label="Layer 1"
     inkscape:groupmode="layer"
     id="layer1"
     transform="translate(-1.6006921,-1.4334572)">
    <path
       d="M 8.6529601,1.4334654 A 7.0522702,7.0522702 0 0 0 7.6489916,1.5050896 7.0522702,7.0522702 0 0 0 6.665836,1.7187391 7.0522702,7.0522702 0 0 0 5.7230847,2.0707405 7.0522702,7.0522702 0 0 0 4.8403267,2.5525231 7.0522702,7.0522702 0 0 0 4.0347026,3.1555166 7.0522702,7.0522702 0 0 0 3.323354,3.8674776 7.0522702,7.0522702 0 0 0 2.7203602,4.6724894 7.0522702,7.0522702 0 0 0 2.2379657,5.5558596 7.0522702,7.0522702 0 0 0 1.8859638,6.4986111 a 7.0522702,7.0522702 0 0 0 -0.2136486,0.983155 7.0522702,7.0522702 0 0 0 -0.071623,1.0039691 7.0522702,7.0522702 0 0 0 0.071623,1.0033568 7.0522702,7.0522702 0 0 0 0.2136486,0.983155 7.0522702,7.0522702 0 0 0 0.3520019,0.942751 7.0522702,7.0522702 0 0 0 0.4823945,0.88337 7.0522702,7.0522702 0 0 0 0.6029938,0.805624 7.0522702,7.0522702 0 0 0 0.7113486,0.711348 7.0522702,7.0522702 0 0 0 0.8056241,0.602994 7.0522702,7.0522702 0 0 0 0.882758,0.482396 7.0522702,7.0522702 0 0 0 0.9427513,0.351388 7.0522702,7.0522702 0 0 0 0.9831556,0.21365 7.0522702,7.0522702 0 0 0 1.0039685,0.07224 7.0522702,7.0522702 0 0 0 1.0033569,-0.07224 7.0522702,7.0522702 0 0 0 0.983154,-0.21365 7.0522702,7.0522702 0 0 0 0.942753,-0.351388 7.0522702,7.0522702 0 0 0 0.883369,-0.482396 7.0522702,7.0522702 0 0 0 0.805624,-0.602994 7.0522702,7.0522702 0 0 0 0.711349,-0.711348 7.0522702,7.0522702 0 0 0 0.602994,-0.805624 7.0522702,7.0522702 0 0 0 0.482395,-0.88337 7.0522702,7.0522702 0 0 0 0.351389,-0.942751 7.0522702,7.0522702 0 0 0 0.214262,-0.983155 7.0522702,7.0522702 0 0 0 0.07162,-1.0033568 7.0522702,7.0522702 0 0 0 -0.0085,-0.3464918 7.0522702,7.0522702 0 0 0 -0.02575,-0.3452669 7.0522702,7.0522702 0 0 0 -0.04224,-0.3434309 7.0522702,7.0522702 0 0 0 -0.05938,-0.3409821 7.0522702,7.0522702 0 0 0 -0.0753,-0.3379213 A 7.0522702,7.0522702 0 0 0 15.401591,6.4386183 7.0522702,7.0522702 0 0 0 15.292623,6.1098797 7.0522702,7.0522702 0 0 0 15.168352,5.7866506 7.0522702,7.0522702 0 0 0 15.028164,5.4701555 7.0522702,7.0522702 0 0 0 14.872671,5.1610066 7.0522702,7.0522702 0 0 0 14.701874,4.8598158 7.0522702,7.0522702 0 0 0 14.516384,4.5671956 7.0522702,7.0522702 0 0 0 14.317427,4.2843701 7.0522702,7.0522702 0 0 0 14.10439,4.0113396 7.0522702,7.0522702 0 0 0 13.878496,3.7493281 7.0522702,7.0522702 0 0 0 13.639747,3.498948 7.0522702,7.0522702 0 0 0 13.388755,3.2601993 7.0522702,7.0522702 0 0 0 13.126744,3.0343063 7.0522702,7.0522702 0 0 0 12.853713,2.8212689 7.0522702,7.0522702 0 0 0 12.570888,2.6216994 7.0522702,7.0522702 0 0 0 12.278268,2.4368223 7.0522702,7.0522702 0 0 0 11.977078,2.2660251 7.0522702,7.0522702 0 0 0 11.667929,2.1105323 7.0522702,7.0522702 0 0 0 11.351432,1.970344 7.0522702,7.0522702 0 0 0 11.028817,1.8454601 7.0522702,7.0522702 0 0 0 10.700077,1.7371048 7.0522702,7.0522702 0 0 0 10.366442,1.6446663 7.0522702,7.0522702 0 0 0 10.028521,1.5687564 7.0522702,7.0522702 0 0 0 9.687538,1.5093753 7.0522702,7.0522702 0 0 0 9.344107,1.4671351 7.0522702,7.0522702 0 0 0 8.9988398,1.4414237 7.0522702,7.0522702 0 0 0 8.6529601,1.4334654 Z m 0.027543,0.5711604 a 6.4254017,6.4254017 0 0 1 0.336084,0.00856 6.4254017,6.4254017 0 0 1 0.3354729,0.026936 6.4254017,6.4254017 0 0 1 0.333636,0.043464 6.4254017,6.4254017 0 0 1 0.330574,0.061217 6.4254017,6.4254017 0 0 1 0.327515,0.078971 6.4254017,6.4254017 0 0 1 0.322004,0.095499 6.4254017,6.4254017 0 0 1 0.317108,0.1120284 6.4254017,6.4254017 0 0 1 0.310986,0.1291693 6.4254017,6.4254017 0 0 1 0.303639,0.1444736 6.4254017,6.4254017 0 0 1 0.295681,0.1603901 6.4254017,6.4254017 0 0 1 0.28711,0.1756946 6.4254017,6.4254017 0 0 1 0.276705,0.1909991 6.4254017,6.4254017 0 0 1 0.266908,0.2044668 6.4254017,6.4254017 0 0 1 0.255889,0.2185469 6.4254017,6.4254017 0 0 1 0.244259,0.2314026 6.4254017,6.4254017 0 0 1 0.231402,0.2442583 6.4254017,6.4254017 0 0 1 0.218547,0.2558897 6.4254017,6.4254017 0 0 1 0.204467,0.2669088 6.4254017,6.4254017 0 0 1 0.191,0.2773159 6.4254017,6.4254017 0 0 1 0.175694,0.2864985 6.4254017,6.4254017 0 0 1 0.160391,0.295681 6.4254017,6.4254017 0 0 1 0.145085,0.3036394 6.4254017,6.4254017 0 0 1 0.128557,0.3109856 6.4254017,6.4254017 0 0 1 0.112031,0.3171072 6.4254017,6.4254017 0 0 1 0.09551,0.3226169 6.4254017,6.4254017 0 0 1 0.07897,0.3269022 6.4254017,6.4254017 0 0 1 0.06122,0.3305751 6.4254017,6.4254017 0 0 1 0.04408,0.3336361 6.4254017,6.4254017 0 0 1 0.02632,0.3354725 6.4254017,6.4254017 0 0 1 0.0085,0.3360848 6.4254017,6.4254017 0 0 1 -0.07897,1.0051934 6.4254017,6.4254017 0 0 1 -0.235688,0.9807054 6.4254017,6.4254017 0 0 1 -0.38567,0.931121 6.4254017,6.4254017 0 0 1 -0.527085,0.860108 6.4254017,6.4254017 0 0 1 -0.654416,0.766445 6.4254017,6.4254017 0 0 1 -0.767056,0.655027 6.4254017,6.4254017 0 0 1 -0.859496,0.526472 6.4254017,6.4254017 0 0 1 -0.931733,0.385671 6.4254017,6.4254017 0 0 1 -0.980093,0.235687 6.4254017,6.4254017 0 0 1 -1.005193,0.07897 A 6.4254017,6.4254017 0 0 1 7.6752834,14.776452 6.4254017,6.4254017 0 0 1 6.6951888,14.540765 6.4254017,6.4254017 0 0 1 5.763457,14.155094 6.4254017,6.4254017 0 0 1 4.9039617,13.628622 6.4254017,6.4254017 0 0 1 4.1369045,12.973595 6.4254017,6.4254017 0 0 1 3.4824882,12.20715 6.4254017,6.4254017 0 0 1 2.9554045,11.347042 6.4254017,6.4254017 0 0 1 2.5697329,10.415921 6.4254017,6.4254017 0 0 1 2.3340454,9.4352154 6.4254017,6.4254017 0 0 1 2.2550777,8.430022 6.4254017,6.4254017 0 0 1 2.3340454,7.4248286 6.4254017,6.4254017 0 0 1 2.5697329,6.4447344 6.4254017,6.4254017 0 0 1 2.9554045,5.5130022 6.4254017,6.4254017 0 0 1 3.4824882,4.6535068 6.4254017,6.4254017 0 0 1 4.1369045,3.88645 6.4254017,6.4254017 0 0 1 4.9039617,3.2320337 6.4254017,6.4254017 0 0 1 5.763457,2.7049499 6.4254017,6.4254017 0 0 1 6.6951888,2.3192789 6.4254017,6.4254017 0 0 1 7.6752834,2.083591 6.4254017,6.4254017 0 0 1 8.6804767,2.0046198 Z"
       style="fill:#45639b;fill-opacity:1;stroke-width:0.313434"
       id="path17" />
    <path
       d="M 7.6662106,4.8654573 V 12.026261 H 9.9063841 V 9.7959063 h 2.2298369 c 0.03325,0 0.06627,-0.00121 0.09819,-0.00413 0.03192,-0.0029 0.06304,-0.00723 0.09353,-0.012908 0.03049,-0.00568 0.06044,-0.012828 0.0894,-0.021187 0.02896,-0.00836 0.0569,-0.018023 0.08423,-0.02894 0.02733,-0.010915 0.05398,-0.022824 0.07958,-0.036174 0.02561,-0.013351 0.05012,-0.028249 0.0739,-0.043925 0.02378,-0.015667 0.04688,-0.032241 0.06873,-0.050125 0.02185,-0.017882 0.04271,-0.036864 0.06253,-0.056845 0.01982,-0.019977 0.03812,-0.041083 0.05581,-0.063046 0.0177,-0.02196 0.03466,-0.044903 0.05013,-0.068728 0.01547,-0.023827 0.02975,-0.048321 0.04289,-0.073898 0.01313,-0.025577 0.02495,-0.052368 0.03566,-0.079583 0.01071,-0.027212 0.02024,-0.05498 0.02842,-0.083715 0.0082,-0.028735 0.01512,-0.058227 0.02067,-0.088367 0.0056,-0.03014 0.0096,-0.061068 0.01241,-0.092501 0.0028,-0.031431 0.0047,-0.063509 0.0047,-0.096118 v -3.140376 c 0,-0.03261 -0.0018,-0.06476 -0.0047,-0.09612 -0.0028,-0.03136 -0.0068,-0.06198 -0.01241,-0.09199 -0.0056,-0.03 -0.01248,-0.05931 -0.02067,-0.08785 -0.0082,-0.02854 -0.01772,-0.05623 -0.02842,-0.0832 -0.01071,-0.02697 -0.02252,-0.05324 -0.03566,-0.07855 -0.01313,-0.0253 -0.02743,-0.04985 -0.04289,-0.07338 -0.01546,-0.02353 -0.03243,-0.04605 -0.05013,-0.06769 -0.0177,-0.02165 -0.03599,-0.04235 -0.05581,-0.06201 -0.01982,-0.01965 -0.04068,-0.03824 -0.06253,-0.05581 -0.02185,-0.01756 -0.04495,-0.03423 -0.06873,-0.04961 -0.02378,-0.01538 -0.04829,-0.0293 -0.0739,-0.04238 -0.0256,-0.01307 -0.05225,-0.02499 -0.07958,-0.03566 -0.02733,-0.01067 -0.05527,-0.02026 -0.08423,-0.02842 -0.02896,-0.0082 -0.05891,-0.01512 -0.0894,-0.02067 -0.03049,-0.0055 -0.06162,-0.0096 -0.09353,-0.01241 -0.03192,-0.0028 -0.06494,-0.0041 -0.09819,-0.0041 z m 2.2401735,1.800408 H 10.796252 V 8.0058352 H 9.9063841 Z"
       style="font-size:50.8px;fill:#45639b;fill-opacity:1;stroke-width:0.0532813"
       id="path12" />
    <path
       d="M 7.4134275,9.2597782 V 7.4500695 L 6.883744,4.8657313 4.7557085,4.8812343 v 0.890385 l 0.82889,2.4794349 -1.0025228,2.9026658 v 0.889869 l 2.2298381,-0.01602 z"
       style="font-size:10.23px;fill:#45639b;fill-opacity:1;stroke-width:0.0532813"
       id="path13" />
  </g>
</svg>
